<svg xmlns="http://www.w3.org/2000/svg" viewBox="0 0 40 40">
  <rect width="40" height="40" rx="10" fill="#F6851B"/>
  <path d="M30.2 11.3l-7.5 5.6 1.4-3.3 6.1-2.3z" fill="#E2761B"/>
  <path d="M9.8 11.3l7.4 5.7-1.3-3.4-6.1-2.3z" fill="#E4761B"/>
  <path d="M27 25.5l-2 3 4.3 1.2 1.2-4.2-3.5 0z" fill="#E4761B"/>
  <path d="M9.5 25.5l1.2 4.2 4.3-1.2-2-3-3.5 0z" fill="#E4761B"/>
  <path d="M14.7 19.8l-1.2 1.8 4.3.2-.2-4.6-2.9 2.6z" fill="#E4761B"/>
  <path d="M25.3 19.8l-3-2.7-.1 4.7 4.3-.2-1.2-1.8z" fill="#E4761B"/>
  <path d="M15 28.5l2.6-1.3-2.2-1.7-.4 3z" fill="#E4761B"/>
  <path d="M22.4 27.2l2.6 1.3-.4-3-2.2 1.7z" fill="#E4761B"/>
  <path d="M25 28.5l-2.6-1.3.2 1.7-.1.7 2.5-1.1z" fill="#D7C1B3"/>
  <path d="M15 28.5l2.5 1.1-.1-.7.2-1.7-2.6 1.3z" fill="#D7C1B3"/>
  <path d="M17.6 23.6l-2.1-.6 1.5-.7.6 1.3z" fill="#233447"/>
  <path d="M22.4 23.6l.6-1.3 1.5.7-2.1.6z" fill="#233447"/>
  <path d="M15 28.5l.4-3.1-2.4 0 2 3.1z" fill="#CC6228"/>
  <path d="M24.6 25.4l.4 3.1 2-3.1-2.4 0z" fill="#CC6228"/>
  <path d="M26.4 21.6l-4.3.2.4 2.2.6-1.3 1.5.7 1.8-1.8z" fill="#CC6228"/>
  <path d="M15.5 23.4l1.5-.7.6 1.3.4-2.2-4.3-.2 1.8 1.8z" fill="#CC6228"/>
  <path d="M13.7 21.8l1.9 3.7-.1-1.8-1.8-1.9z" fill="#E27525"/>
  <path d="M24.6 23.7l-.1 1.8 1.9-3.7-1.8 1.9z" fill="#E27525"/>
  <path d="M18 22l-.4 2.2.5 2.6.1-3.4-0.2-1.4z" fill="#E27525"/>
  <path d="M22.1 22l-.2 1.3.1 3.5.5-2.6-.4-2.2z" fill="#E27525"/>
  <path d="M22.5 24.2l-.5 2.6.4.2 2.2-1.7.1-1.8-2.2.7z" fill="#F5841F"/>
  <path d="M15.5 23.5l.1 1.8 2.2 1.7.3-.2-.5-2.6-2.1-.7z" fill="#F5841F"/>
  <path fill="#C0AD9E" d="M22.6 29.6l.1-.7-.2-.2h-5l-.2.2.1.7-2.4-1.1 0.8.7 1.7 1.2h5.1l1.7-1.2 0.8-.7-2.5 1.1z"/>
  <path fill="#161616" d="M22.4 27.2l-.4-.2h-4l-.3.2-.2 1.7.2-.2h5l.2.2-.5-1.7z"/>
  <path fill="#763E1A" d="M30.7 17.3l.6-3-1-2.7-7.9 5.8 3 2.6 4.3 1.2 1-1.1-.4-.3.7-.6-.5-.4.6-.5-.4-.3z"/>
  <path fill="#763E1A" d="M8.7 14.3l.6 3-.4.3.7.5-.5.4.6.6-.4.3 1 1.1 4.3-1.2 3-2.6-7.9-5.8-1 2.7z"/>
</svg>
