<svg xmlns="http://www.w3.org/2000/svg" viewBox="0 0 40 40" fill="none">
  <rect width="40" height="40" rx="8" fill="#F6851B"/>
  <path d="M30.5 10L21 17l1.8-4.2L30.5 10z" fill="#E2761B" stroke="#E2761B" stroke-width=".2"/>
  <path d="M9.5 10l9.4 7.1-1.7-4.3L9.5 10zm17.7 17.6l-2.5 3.9 5.4 1.5 1.6-5.3-4.5-.1zm-22.3.1l1.5 5.3 5.4-1.5-2.5-3.9-4.4.1z" fill="#E4761B" stroke="#E4761B" stroke-width=".2"/>
  <path d="M14 20.5l-1.5 2.3 5.3.2-.2-5.9L14 20.5zm12 0l-3.7-3.5-.1 6 5.3-.3-1.5-2.2zm-12.2 9.9l3.2-1.6-2.8-2.1-.4 3.7zm8.2-1.6l3.2 1.6-.4-3.7-2.8 2.1z" fill="#E4761B" stroke="#E4761B" stroke-width=".2"/>
</svg>
